<svg xmlns="http://www.w3.org/2000/svg" xmlns:xlink="http://www.w3.org/1999/xlink" width="1366" zoomAndPan="magnify" viewBox="0 0 1024.5 576" height="768" preserveAspectRatio="xMidYMid meet" version="1.0"><defs><g/><clipPath id="5d0fe5f2bd"><path d="M 17.207031 129 L 224 129 L 224 448 L 17.207031 448 Z M 17.207031 129 " clip-rule="nonzero"/></clipPath><clipPath id="4d30668fb7"><path d="M 17.207031 129 L 224 129 L 224 369 L 17.207031 369 Z M 17.207031 129 " clip-rule="nonzero"/></clipPath><clipPath id="0282ca294b"><path d="M 298 128.082031 L 361.289062 128.082031 L 361.289062 192 L 298 192 Z M 298 128.082031 " clip-rule="nonzero"/></clipPath><clipPath id="962b325ef2"><path d="M 149 132 L 361.289062 132 L 361.289062 445 L 149 445 Z M 149 132 " clip-rule="nonzero"/></clipPath><clipPath id="9b7d3d72b1"><path d="M 149 132 L 361.289062 132 L 361.289062 368 L 149 368 Z M 149 132 " clip-rule="nonzero"/></clipPath></defs><g clip-path="url(#5d0fe5f2bd)"><path fill="#ffffff" d="M 99.085938 144.105469 L 209.730469 254.753906 C 210.84375 255.863281 211.894531 257.027344 212.894531 258.238281 C 213.890625 259.453125 214.824219 260.714844 215.695312 262.019531 C 216.570312 263.328125 217.375 264.671875 218.117188 266.058594 C 218.855469 267.445312 219.527344 268.863281 220.128906 270.3125 C 220.730469 271.765625 221.257812 273.242188 221.714844 274.746094 C 222.171875 276.25 222.550781 277.773438 222.859375 279.3125 C 223.164062 280.855469 223.394531 282.40625 223.550781 283.96875 C 223.703125 285.53125 223.78125 287.101562 223.78125 288.671875 C 223.78125 290.242188 223.703125 291.808594 223.550781 293.375 C 223.394531 294.9375 223.164062 296.488281 222.859375 298.03125 C 222.550781 299.570312 222.171875 301.09375 221.714844 302.597656 C 221.257812 304.097656 220.730469 305.578125 220.128906 307.027344 C 219.527344 308.480469 218.855469 309.898438 218.117188 311.285156 C 217.375 312.667969 216.570312 314.015625 215.695312 315.320312 C 214.824219 316.628906 213.890625 317.886719 212.894531 319.101562 C 211.894531 320.316406 210.84375 321.480469 209.730469 322.589844 L 99.085938 433.238281 C 68.867188 463.457031 17.179688 442.039062 17.207031 399.28125 L 17.207031 177.988281 C 17.179688 135.300781 68.867188 113.886719 99.085938 144.105469 Z M 99.085938 144.105469 " fill-opacity="1" fill-rule="nonzero"/></g><g clip-path="url(#4d30668fb7)"><path fill="#ffffff" d="M 99.085938 144.105469 C 69.039062 114.058594 17.945312 135.058594 17.230469 177.273438 C 17.230469 177.273438 191.339844 342.015625 163.652344 368.867188 L 209.828125 322.6875 C 210.941406 321.578125 211.996094 320.414062 212.992188 319.199219 C 213.988281 317.988281 214.921875 316.726562 215.796875 315.417969 C 216.667969 314.113281 217.472656 312.765625 218.214844 311.382812 C 218.957031 309.996094 219.625 308.578125 220.226562 307.125 C 220.828125 305.675781 221.355469 304.195312 221.8125 302.695312 C 222.269531 301.191406 222.652344 299.667969 222.957031 298.128906 C 223.261719 296.585938 223.492188 295.035156 223.648438 293.472656 C 223.800781 291.90625 223.878906 290.339844 223.878906 288.769531 C 223.878906 287.199219 223.800781 285.632812 223.648438 284.066406 C 223.492188 282.503906 223.261719 280.953125 222.957031 279.410156 C 222.652344 277.871094 222.269531 276.347656 221.8125 274.84375 C 221.355469 273.339844 220.828125 271.863281 220.226562 270.414062 C 219.625 268.960938 218.957031 267.542969 218.214844 266.15625 C 217.472656 264.773438 216.667969 263.425781 215.796875 262.121094 C 214.921875 260.8125 213.988281 259.550781 212.992188 258.339844 C 211.996094 257.125 210.941406 255.960938 209.828125 254.851562 Z M 99.085938 144.105469 " fill-opacity="1" fill-rule="nonzero"/></g><g clip-path="url(#0282ca294b)"><path fill="#ffffff" d="M 361.441406 159.792969 C 361.441406 160.820312 361.390625 161.84375 361.289062 162.867188 C 361.1875 163.886719 361.039062 164.902344 360.839844 165.910156 C 360.636719 166.914062 360.386719 167.910156 360.089844 168.894531 C 359.792969 169.875 359.445312 170.839844 359.054688 171.789062 C 358.660156 172.738281 358.222656 173.664062 357.738281 174.570312 C 357.253906 175.476562 356.726562 176.355469 356.15625 177.210938 C 355.585938 178.0625 354.976562 178.886719 354.324219 179.679688 C 353.671875 180.472656 352.984375 181.234375 352.257812 181.960938 C 351.53125 182.6875 350.773438 183.375 349.980469 184.027344 C 349.183594 184.675781 348.363281 185.289062 347.507812 185.859375 C 346.652344 186.429688 345.773438 186.957031 344.867188 187.441406 C 343.964844 187.925781 343.035156 188.363281 342.085938 188.757812 C 341.140625 189.148438 340.171875 189.496094 339.191406 189.792969 C 338.207031 190.089844 337.214844 190.339844 336.207031 190.539062 C 335.199219 190.742188 334.183594 190.890625 333.164062 190.992188 C 332.140625 191.09375 331.117188 191.140625 330.089844 191.140625 C 329.0625 191.140625 328.039062 191.09375 327.019531 190.992188 C 325.996094 190.890625 324.980469 190.742188 323.972656 190.539062 C 322.96875 190.339844 321.972656 190.089844 320.988281 189.792969 C 320.007812 189.496094 319.042969 189.148438 318.09375 188.757812 C 317.144531 188.363281 316.21875 187.925781 315.3125 187.441406 C 314.40625 186.957031 313.527344 186.429688 312.671875 185.859375 C 311.820312 185.289062 310.996094 184.675781 310.203125 184.027344 C 309.410156 183.375 308.648438 182.6875 307.921875 181.960938 C 307.195312 181.234375 306.507812 180.472656 305.855469 179.679688 C 305.207031 178.886719 304.59375 178.0625 304.023438 177.210938 C 303.453125 176.355469 302.925781 175.476562 302.441406 174.570312 C 301.957031 173.664062 301.519531 172.738281 301.128906 171.789062 C 300.734375 170.839844 300.386719 169.875 300.089844 168.894531 C 299.792969 167.910156 299.542969 166.914062 299.34375 165.910156 C 299.144531 164.902344 298.992188 163.886719 298.890625 162.867188 C 298.789062 161.84375 298.742188 160.820312 298.742188 159.792969 C 298.742188 158.765625 298.789062 157.742188 298.890625 156.71875 C 298.992188 155.699219 299.144531 154.683594 299.34375 153.675781 C 299.542969 152.667969 299.792969 151.675781 300.089844 150.691406 C 300.386719 149.710938 300.734375 148.742188 301.128906 147.796875 C 301.519531 146.847656 301.957031 145.917969 302.441406 145.015625 C 302.925781 144.109375 303.453125 143.230469 304.023438 142.375 C 304.59375 141.523438 305.207031 140.699219 305.855469 139.902344 C 306.507812 139.109375 307.195312 138.351562 307.921875 137.625 C 308.648438 136.898438 309.410156 136.210938 310.203125 135.558594 C 310.996094 134.90625 311.820312 134.296875 312.671875 133.726562 C 313.527344 133.15625 314.40625 132.628906 315.3125 132.144531 C 316.21875 131.660156 317.144531 131.222656 318.09375 130.828125 C 319.042969 130.4375 320.007812 130.089844 320.988281 129.792969 C 321.972656 129.496094 322.96875 129.246094 323.972656 129.042969 C 324.980469 128.84375 325.996094 128.695312 327.019531 128.59375 C 328.039062 128.492188 329.0625 128.441406 330.089844 128.441406 C 331.117188 128.441406 332.140625 128.492188 333.164062 128.59375 C 334.183594 128.695312 335.199219 128.84375 336.207031 129.042969 C 337.214844 129.246094 338.207031 129.496094 339.191406 129.792969 C 340.171875 130.089844 341.140625 130.4375 342.085938 130.828125 C 343.035156 131.222656 343.964844 131.660156 344.867188 132.144531 C 345.773438 132.628906 346.652344 133.15625 347.507812 133.726562 C 348.363281 134.296875 349.183594 134.90625 349.980469 135.558594 C 350.773438 136.210938 351.53125 136.898438 352.257812 137.625 C 352.984375 138.351562 353.671875 139.109375 354.324219 139.902344 C 354.976562 140.699219 355.585938 141.523438 356.15625 142.375 C 356.726562 143.230469 357.253906 144.109375 357.738281 145.015625 C 358.222656 145.917969 358.660156 146.847656 359.054688 147.796875 C 359.445312 148.742188 359.792969 149.710938 360.089844 150.691406 C 360.386719 151.675781 360.636719 152.667969 360.839844 153.675781 C 361.039062 154.683594 361.1875 155.699219 361.289062 156.71875 C 361.390625 157.742188 361.441406 158.765625 361.441406 159.792969 Z M 361.441406 159.792969 " fill-opacity="1" fill-rule="nonzero"/><path fill="#ffffff" d="M 361.441406 159.792969 C 361.441406 160.820312 361.390625 161.84375 361.289062 162.867188 C 361.1875 163.886719 361.039062 164.902344 360.839844 165.910156 C 360.636719 166.914062 360.386719 167.910156 360.089844 168.894531 C 359.792969 169.875 359.445312 170.839844 359.054688 171.789062 C 358.660156 172.738281 358.222656 173.664062 357.738281 174.570312 C 357.253906 175.476562 356.726562 176.355469 356.15625 177.210938 C 355.585938 178.0625 354.976562 178.886719 354.324219 179.679688 C 353.671875 180.472656 352.984375 181.234375 352.257812 181.960938 C 351.53125 182.6875 350.773438 183.375 349.980469 184.027344 C 349.183594 184.675781 348.363281 185.289062 347.507812 185.859375 C 346.652344 186.429688 345.773438 186.957031 344.867188 187.441406 C 343.964844 187.925781 343.035156 188.363281 342.085938 188.757812 C 341.140625 189.148438 340.171875 189.496094 339.191406 189.792969 C 338.207031 190.089844 337.214844 190.339844 336.207031 190.539062 C 335.199219 190.742188 334.183594 190.890625 333.164062 190.992188 C 332.140625 191.09375 331.117188 191.140625 330.089844 191.140625 C 329.0625 191.140625 328.039062 191.09375 327.019531 190.992188 C 325.996094 190.890625 324.980469 190.742188 323.972656 190.539062 C 322.96875 190.339844 321.972656 190.089844 320.988281 189.792969 C 320.007812 189.496094 319.042969 189.148438 318.09375 188.757812 C 317.144531 188.363281 316.21875 187.925781 315.3125 187.441406 C 314.40625 186.957031 313.527344 186.429688 312.671875 185.859375 C 311.820312 185.289062 310.996094 184.675781 310.203125 184.027344 C 309.410156 183.375 308.648438 182.6875 307.921875 181.960938 C 307.195312 181.234375 306.507812 180.472656 305.855469 179.679688 C 305.207031 178.886719 304.59375 178.0625 304.023438 177.210938 C 303.453125 176.355469 302.925781 175.476562 302.441406 174.570312 C 301.957031 173.664062 301.519531 172.738281 301.128906 171.789062 C 300.734375 170.839844 300.386719 169.875 300.089844 168.894531 C 299.792969 167.910156 299.542969 166.914062 299.34375 165.910156 C 299.144531 164.902344 298.992188 163.886719 298.890625 162.867188 C 298.789062 161.84375 298.742188 160.820312 298.742188 159.792969 C 298.742188 158.765625 298.789062 157.742188 298.890625 156.71875 C 298.992188 155.699219 299.144531 154.683594 299.34375 153.675781 C 299.542969 152.667969 299.792969 151.675781 300.089844 150.691406 C 300.386719 149.710938 300.734375 148.742188 301.128906 147.796875 C 301.519531 146.847656 301.957031 145.917969 302.441406 145.015625 C 302.925781 144.109375 303.453125 143.230469 304.023438 142.375 C 304.59375 141.523438 305.207031 140.699219 305.855469 139.902344 C 306.507812 139.109375 307.195312 138.351562 307.921875 137.625 C 308.648438 136.898438 309.410156 136.210938 310.203125 135.558594 C 310.996094 134.90625 311.820312 134.296875 312.671875 133.726562 C 313.527344 133.15625 314.40625 132.628906 315.3125 132.144531 C 316.21875 131.660156 317.144531 131.222656 318.09375 130.828125 C 319.042969 130.4375 320.007812 130.089844 320.988281 129.792969 C 321.972656 129.496094 322.96875 129.246094 323.972656 129.042969 C 324.980469 128.84375 325.996094 128.695312 327.019531 128.59375 C 328.039062 128.492188 329.0625 128.441406 330.089844 128.441406 C 331.117188 128.441406 332.140625 128.492188 333.164062 128.59375 C 334.183594 128.695312 335.199219 128.84375 336.207031 129.042969 C 337.214844 129.246094 338.207031 129.496094 339.191406 129.792969 C 340.171875 130.089844 341.140625 130.4375 342.085938 130.828125 C 343.035156 131.222656 343.964844 131.660156 344.867188 132.144531 C 345.773438 132.628906 346.652344 133.15625 347.507812 133.726562 C 348.363281 134.296875 349.183594 134.90625 349.980469 135.558594 C 350.773438 136.210938 351.53125 136.898438 352.257812 137.625 C 352.984375 138.351562 353.671875 139.109375 354.324219 139.902344 C 354.976562 140.699219 355.585938 141.523438 356.15625 142.375 C 356.726562 143.230469 357.253906 144.109375 357.738281 145.015625 C 358.222656 145.917969 358.660156 146.847656 359.054688 147.796875 C 359.445312 148.742188 359.792969 149.710938 360.089844 150.691406 C 360.386719 151.675781 360.636719 152.667969 360.839844 153.675781 C 361.039062 154.683594 361.1875 155.699219 361.289062 156.71875 C 361.390625 157.742188 361.441406 158.765625 361.441406 159.792969 Z M 361.441406 159.792969 " fill-opacity="1" fill-rule="nonzero"/></g><g clip-path="url(#962b325ef2)"><path fill="#ffffff" d="M 347.375 255.023438 L 236.730469 144.375 C 207.027344 114.648438 127.851562 149.121094 154.949219 176.21875 L 234.515625 255.808594 C 235.628906 256.917969 236.683594 258.082031 237.679688 259.292969 C 238.675781 260.507812 239.613281 261.769531 240.484375 263.074219 C 241.359375 264.378906 242.164062 265.722656 242.90625 267.109375 C 243.648438 268.496094 244.320312 269.914062 244.921875 271.363281 C 245.519531 272.816406 246.050781 274.292969 246.507812 275.792969 C 246.964844 277.296875 247.34375 278.820312 247.652344 280.359375 C 247.957031 281.902344 248.1875 283.453125 248.34375 285.015625 C 248.496094 286.578125 248.574219 288.144531 248.574219 289.714844 C 248.574219 291.289062 248.496094 292.855469 248.34375 294.417969 C 248.1875 295.980469 247.957031 297.53125 247.652344 299.074219 C 247.34375 300.613281 246.964844 302.136719 246.507812 303.636719 C 246.050781 305.140625 245.519531 306.617188 244.921875 308.070312 C 244.320312 309.519531 243.648438 310.9375 242.90625 312.324219 C 242.164062 313.707031 241.359375 315.054688 240.484375 316.359375 C 239.613281 317.664062 238.675781 318.925781 237.679688 320.136719 C 236.683594 321.351562 235.628906 322.511719 234.515625 323.625 L 155 403.167969 C 130.753906 427.386719 207.320312 463.113281 236.730469 433.703125 L 347.375 323.058594 C 348.496094 321.945312 349.554688 320.78125 350.558594 319.566406 C 351.5625 318.347656 352.503906 317.085938 353.382812 315.777344 C 354.261719 314.46875 355.074219 313.117188 355.820312 311.730469 C 356.566406 310.339844 357.242188 308.917969 357.847656 307.460938 C 358.453125 306.003906 358.984375 304.523438 359.441406 303.015625 C 359.902344 301.507812 360.285156 299.980469 360.59375 298.433594 C 360.902344 296.886719 361.136719 295.328125 361.289062 293.757812 C 361.445312 292.191406 361.523438 290.617188 361.523438 289.039062 C 361.523438 287.464844 361.445312 285.890625 361.289062 284.320312 C 361.136719 282.75 360.902344 281.195312 360.59375 279.648438 C 360.285156 278.101562 359.902344 276.574219 359.441406 275.066406 C 358.984375 273.558594 358.453125 272.074219 357.847656 270.617188 C 357.242188 269.164062 356.566406 267.742188 355.820312 266.351562 C 355.074219 264.960938 354.261719 263.613281 353.382812 262.304688 C 352.503906 260.992188 351.5625 259.730469 350.558594 258.515625 C 349.554688 257.296875 348.496094 256.132812 347.375 255.023438 Z M 347.375 255.023438 " fill-opacity="1" fill-rule="nonzero"/></g><g clip-path="url(#9b7d3d72b1)"><path fill="#ffffff" d="M 347.375 255.023438 L 236.730469 144.375 C 207.027344 114.648438 127.851562 149.121094 154.949219 176.21875 L 234.515625 255.808594 C 236.421875 257.714844 238.15625 259.765625 239.714844 261.960938 C 241.277344 264.160156 242.640625 266.472656 243.808594 268.902344 C 244.976562 271.328125 245.933594 273.839844 246.675781 276.429688 C 247.417969 279.019531 247.9375 281.652344 248.238281 284.332031 C 275.652344 316.515625 298.445312 347.769531 303.191406 367.242188 L 347.449219 322.984375 C 348.5625 321.871094 349.621094 320.707031 350.621094 319.488281 C 351.621094 318.273438 352.558594 317.011719 353.433594 315.699219 C 354.308594 314.390625 355.117188 313.042969 355.859375 311.65625 C 356.601562 310.265625 357.273438 308.84375 357.875 307.390625 C 358.476562 305.933594 359.007812 304.453125 359.464844 302.945312 C 359.921875 301.4375 360.300781 299.914062 360.609375 298.367188 C 360.914062 296.824219 361.144531 295.269531 361.296875 293.699219 C 361.449219 292.132812 361.523438 290.5625 361.523438 288.988281 C 361.523438 287.414062 361.441406 285.84375 361.285156 284.277344 C 361.128906 282.707031 360.898438 281.152344 360.585938 279.609375 C 360.277344 278.066406 359.894531 276.539062 359.433594 275.035156 C 358.972656 273.527344 358.441406 272.046875 357.835938 270.59375 C 357.230469 269.140625 356.554688 267.722656 355.808594 266.332031 C 355.0625 264.945312 354.253906 263.601562 353.375 262.292969 C 352.496094 260.984375 351.554688 259.722656 350.554688 258.507812 C 349.550781 257.296875 348.492188 256.132812 347.375 255.023438 Z M 347.375 255.023438 " fill-opacity="1" fill-rule="nonzero"/></g><g fill="#ffffff" fill-opacity="1"><g transform="translate(427.871171, 365.426987)"><g><path d="M 45.265625 0 L 17.84375 0 L 17.84375 -149.796875 L 45.265625 -149.796875 Z M 45.265625 0 "/></g></g></g><g fill="#ffffff" fill-opacity="1"><g transform="translate(490.861042, 365.426987)"><g><path d="M 42.296875 0 L 15.640625 0 L 15.640625 -113.234375 L 40.96875 -113.234375 L 40.96875 -95.609375 C 43.175781 -99.722656 46.1875 -103.359375 50 -106.515625 C 53.820312 -109.671875 58.265625 -112.144531 63.328125 -113.9375 C 68.398438 -115.738281 73.835938 -116.640625 79.640625 -116.640625 C 94.835938 -116.640625 106.21875 -111.8125 113.78125 -102.15625 C 121.34375 -92.5 125.125 -78.785156 125.125 -61.015625 L 125.125 0 L 98.46875 0 L 98.46875 -60.46875 C 98.46875 -71.707031 96.117188 -79.785156 91.421875 -84.703125 C 86.722656 -89.617188 80.332031 -92.078125 72.25 -92.078125 C 67.039062 -92.078125 62.160156 -90.753906 57.609375 -88.109375 C 53.054688 -85.472656 49.363281 -81.617188 46.53125 -76.546875 C 43.707031 -71.484375 42.296875 -65.242188 42.296875 -57.828125 Z M 42.296875 0 "/></g></g></g><g fill="#ffffff" fill-opacity="1"><g transform="translate(630.716176, 365.426987)"><g><path d="M 85.25 0 L 62.234375 0 C 58.859375 0 55.390625 -0.3125 51.828125 -0.9375 C 48.265625 -1.5625 44.863281 -2.71875 41.625 -4.40625 C 38.394531 -6.09375 35.515625 -8.53125 32.984375 -11.71875 C 30.453125 -14.914062 28.429688 -19.066406 26.921875 -24.171875 C 25.421875 -29.273438 24.671875 -35.570312 24.671875 -43.0625 L 24.671875 -90.3125 L 1.21875 -90.3125 L 1.21875 -113.234375 L 24.671875 -113.234375 L 24.671875 -146.390625 L 51.328125 -146.609375 L 51.328125 -113.234375 L 85.25 -113.234375 L 85.25 -90.3125 L 51.328125 -90.3125 L 51.328125 -41.859375 C 51.328125 -36.566406 52.097656 -32.488281 53.640625 -29.625 C 55.179688 -26.757812 57.21875 -24.796875 59.75 -23.734375 C 62.28125 -22.671875 64.941406 -22.140625 67.734375 -22.140625 L 85.25 -22.140625 Z M 85.25 0 "/></g></g></g><g fill="#ffffff" fill-opacity="1"><g transform="translate(721.897319, 365.426987)"><g><path d="M 123.359375 -58.59375 C 123.359375 -57.195312 123.320312 -55.875 123.25 -54.625 C 123.175781 -53.382812 123.03125 -51.695312 122.8125 -49.5625 L 34.359375 -49.5625 C 35.316406 -43.394531 37.28125 -38.144531 40.25 -33.8125 C 43.226562 -29.476562 46.921875 -26.15625 51.328125 -23.84375 C 55.734375 -21.53125 60.539062 -20.375 65.75 -20.375 C 72.507812 -20.375 77.984375 -21.710938 82.171875 -24.390625 C 86.359375 -27.078125 89.40625 -30.804688 91.3125 -35.578125 L 120.390625 -35.578125 C 118.992188 -30.515625 116.695312 -25.628906 113.5 -20.921875 C 110.3125 -16.222656 106.398438 -12.054688 101.765625 -8.421875 C 97.140625 -4.785156 91.832031 -1.90625 85.84375 0.21875 C 79.863281 2.351562 73.351562 3.421875 66.3125 3.421875 C 57.789062 3.421875 49.945312 1.859375 42.78125 -1.265625 C 35.625 -4.390625 29.421875 -8.703125 24.171875 -14.203125 C 18.921875 -19.710938 14.84375 -26.101562 11.9375 -33.375 C 9.039062 -40.644531 7.59375 -48.390625 7.59375 -56.609375 C 7.59375 -64.910156 9.039062 -72.675781 11.9375 -79.90625 C 14.84375 -87.144531 18.921875 -93.515625 24.171875 -99.015625 C 29.421875 -104.523438 35.625 -108.835938 42.78125 -111.953125 C 49.945312 -115.078125 57.789062 -116.640625 66.3125 -116.640625 C 74.820312 -116.640625 82.582031 -115.097656 89.59375 -112.015625 C 96.613281 -108.929688 102.640625 -104.691406 107.671875 -99.296875 C 112.703125 -93.898438 116.570312 -87.710938 119.28125 -80.734375 C 122 -73.753906 123.359375 -66.375 123.359375 -58.59375 Z M 35.46875 -70.15625 L 96.15625 -70.15625 C 95.789062 -74.414062 94.210938 -78.289062 91.421875 -81.78125 C 88.628906 -85.269531 85.03125 -88.078125 80.625 -90.203125 C 76.21875 -92.335938 71.410156 -93.40625 66.203125 -93.40625 C 61.722656 -93.40625 57.425781 -92.578125 53.3125 -90.921875 C 49.195312 -89.273438 45.578125 -86.742188 42.453125 -83.328125 C 39.335938 -79.910156 37.007812 -75.519531 35.46875 -70.15625 Z M 35.46875 -70.15625 "/></g></g></g><g fill="#ffffff" fill-opacity="1"><g transform="translate(851.290847, 365.426987)"><g><path d="M 42.296875 0 L 15.640625 0 L 15.640625 -155.1875 L 42.296875 -155.1875 Z M 42.296875 0 "/></g></g></g><g fill="#ffffff" fill-opacity="1"><g transform="translate(909.104977, 365.426987)"><g><path d="M 42.296875 0 L 15.640625 0 L 15.640625 -155.1875 L 42.296875 -155.1875 Z M 42.296875 0 "/></g></g></g><g fill="#ffffff" fill-opacity="1"><g transform="translate(966.919107, 365.426987)"><g><path d="M 28.75 -130.859375 C 23.601562 -130.859375 19.582031 -132.34375 16.6875 -135.3125 C 13.789062 -138.289062 12.34375 -141.90625 12.34375 -146.15625 C 12.34375 -150.269531 13.789062 -153.832031 16.6875 -156.84375 C 19.582031 -159.851562 23.640625 -161.359375 28.859375 -161.359375 C 34.222656 -161.359375 38.351562 -159.851562 41.25 -156.84375 C 44.144531 -153.832031 45.59375 -150.269531 45.59375 -146.15625 C 45.59375 -141.90625 44.144531 -138.289062 41.25 -135.3125 C 38.351562 -132.34375 34.1875 -130.859375 28.75 -130.859375 Z M 42.296875 0 L 15.640625 0 L 15.640625 -113.234375 L 42.296875 -113.234375 Z M 42.296875 0 "/></g></g></g></svg>