<svg xmlns="http://www.w3.org/2000/svg" xmlns:xlink="http://www.w3.org/1999/xlink" width="1366" zoomAndPan="magnify" viewBox="0 0 1024.5 576" height="768" preserveAspectRatio="xMidYMid meet" version="1.0"><defs><g/><clipPath id="6809ac5645"><path d="M 14.480469 130 L 221 130 L 221 447 L 14.480469 447 Z M 14.480469 130 " clip-rule="nonzero"/></clipPath><clipPath id="fd424ba7a2"><path d="M 14.480469 130 L 221 130 L 221 369 L 14.480469 369 Z M 14.480469 130 " clip-rule="nonzero"/></clipPath><clipPath id="db432574d2"><path d="M 295 128.550781 L 357.8125 128.550781 L 357.8125 192 L 295 192 Z M 295 128.550781 " clip-rule="nonzero"/></clipPath><clipPath id="ae7f0e0909"><path d="M 146 133 L 357.8125 133 L 357.8125 445 L 146 445 Z M 146 133 " clip-rule="nonzero"/></clipPath><clipPath id="e78a52e7dd"><path d="M 146 133 L 357.8125 133 L 357.8125 368 L 146 368 Z M 146 133 " clip-rule="nonzero"/></clipPath></defs><g clip-path="url(#6809ac5645)"><path fill="#72ffff" d="M 96.121094 144.53125 L 206.445312 254.855469 C 207.550781 255.960938 208.601562 257.121094 209.59375 258.332031 C 210.589844 259.542969 211.519531 260.800781 212.390625 262.101562 C 213.261719 263.402344 214.066406 264.746094 214.804688 266.128906 C 215.542969 267.507812 216.210938 268.921875 216.8125 270.371094 C 217.410156 271.816406 217.9375 273.292969 218.390625 274.789062 C 218.847656 276.289062 219.226562 277.808594 219.53125 279.34375 C 219.839844 280.878906 220.066406 282.425781 220.222656 283.984375 C 220.375 285.542969 220.453125 287.109375 220.453125 288.675781 C 220.453125 290.242188 220.375 291.804688 220.222656 293.363281 C 220.066406 294.921875 219.839844 296.46875 219.53125 298.003906 C 219.226562 299.542969 218.847656 301.058594 218.390625 302.558594 C 217.9375 304.058594 217.410156 305.53125 216.8125 306.976562 C 216.210938 308.425781 215.542969 309.839844 214.804688 311.21875 C 214.066406 312.601562 213.261719 313.945312 212.390625 315.246094 C 211.519531 316.550781 210.589844 317.804688 209.59375 319.015625 C 208.601562 320.226562 207.550781 321.386719 206.445312 322.496094 L 96.121094 432.816406 C 65.988281 462.949219 14.457031 441.59375 14.480469 398.960938 L 14.480469 178.3125 C 14.457031 135.753906 65.988281 114.402344 96.121094 144.53125 Z M 96.121094 144.53125 " fill-opacity="1" fill-rule="nonzero"/></g><g clip-path="url(#fd424ba7a2)"><path fill="#00d7ff" d="M 96.121094 144.53125 C 66.160156 114.570312 15.21875 135.507812 14.507812 177.601562 C 14.507812 177.601562 188.105469 341.863281 160.5 368.632812 L 206.542969 322.59375 C 207.648438 321.484375 208.699219 320.324219 209.695312 319.113281 C 210.6875 317.902344 211.617188 316.648438 212.488281 315.34375 C 213.359375 314.042969 214.164062 312.699219 214.902344 311.316406 C 215.640625 309.9375 216.308594 308.523438 216.910156 307.074219 C 217.507812 305.628906 218.035156 304.15625 218.488281 302.65625 C 218.945312 301.15625 219.324219 299.640625 219.628906 298.101562 C 219.9375 296.566406 220.164062 295.019531 220.320312 293.460938 C 220.472656 291.902344 220.550781 290.339844 220.550781 288.773438 C 220.550781 287.207031 220.472656 285.644531 220.320312 284.082031 C 220.164062 282.523438 219.9375 280.976562 219.628906 279.441406 C 219.324219 277.90625 218.945312 276.386719 218.488281 274.886719 C 218.035156 273.390625 217.507812 271.914062 216.910156 270.46875 C 216.308594 269.019531 215.640625 267.605469 214.902344 266.226562 C 214.164062 264.84375 213.359375 263.503906 212.488281 262.199219 C 211.617188 260.898438 210.6875 259.640625 209.695312 258.429688 C 208.699219 257.21875 207.648438 256.058594 206.542969 254.953125 Z M 96.121094 144.53125 " fill-opacity="1" fill-rule="nonzero"/></g><g clip-path="url(#db432574d2)"><path fill="#590696" d="M 357.707031 160.171875 C 357.707031 161.195312 357.660156 162.21875 357.558594 163.234375 C 357.457031 164.253906 357.308594 165.265625 357.109375 166.269531 C 356.90625 167.273438 356.660156 168.265625 356.363281 169.246094 C 356.066406 170.226562 355.722656 171.1875 355.328125 172.132812 C 354.9375 173.082031 354.5 174.003906 354.019531 174.90625 C 353.535156 175.808594 353.007812 176.6875 352.441406 177.539062 C 351.871094 178.390625 351.261719 179.210938 350.613281 180.003906 C 349.964844 180.792969 349.277344 181.550781 348.554688 182.273438 C 347.828125 183 347.070312 183.6875 346.28125 184.335938 C 345.488281 184.984375 344.667969 185.59375 343.816406 186.164062 C 342.964844 186.730469 342.089844 187.257812 341.183594 187.738281 C 340.28125 188.222656 339.359375 188.660156 338.414062 189.050781 C 337.464844 189.441406 336.503906 189.789062 335.523438 190.085938 C 334.542969 190.382812 333.550781 190.628906 332.546875 190.828125 C 331.542969 191.03125 330.53125 191.179688 329.515625 191.28125 C 328.496094 191.378906 327.472656 191.429688 326.449219 191.429688 C 325.425781 191.429688 324.40625 191.378906 323.386719 191.28125 C 322.367188 191.179688 321.355469 191.03125 320.351562 190.828125 C 319.347656 190.628906 318.355469 190.382812 317.375 190.085938 C 316.398438 189.789062 315.433594 189.441406 314.488281 189.050781 C 313.542969 188.660156 312.617188 188.222656 311.714844 187.738281 C 310.8125 187.257812 309.933594 186.730469 309.085938 186.164062 C 308.234375 185.59375 307.410156 184.984375 306.621094 184.335938 C 305.828125 183.6875 305.070312 183 304.347656 182.273438 C 303.625 181.550781 302.9375 180.792969 302.289062 180.003906 C 301.636719 179.210938 301.027344 178.390625 300.460938 177.539062 C 299.890625 176.6875 299.367188 175.808594 298.882812 174.90625 C 298.402344 174.003906 297.964844 173.082031 297.570312 172.132812 C 297.179688 171.1875 296.835938 170.226562 296.539062 169.246094 C 296.242188 168.265625 295.992188 167.273438 295.792969 166.269531 C 295.59375 165.265625 295.441406 164.253906 295.34375 163.234375 C 295.242188 162.21875 295.191406 161.195312 295.191406 160.171875 C 295.191406 159.148438 295.242188 158.128906 295.34375 157.109375 C 295.441406 156.089844 295.59375 155.078125 295.792969 154.074219 C 295.992188 153.070312 296.242188 152.078125 296.539062 151.097656 C 296.835938 150.117188 297.179688 149.15625 297.570312 148.210938 C 297.964844 147.265625 298.402344 146.339844 298.882812 145.4375 C 299.367188 144.535156 299.890625 143.65625 300.460938 142.804688 C 301.027344 141.953125 301.636719 141.132812 302.289062 140.34375 C 302.9375 139.550781 303.625 138.792969 304.347656 138.070312 C 305.070312 137.34375 305.828125 136.660156 306.621094 136.007812 C 307.410156 135.359375 308.234375 134.75 309.085938 134.183594 C 309.933594 133.613281 310.8125 133.085938 311.714844 132.605469 C 312.617188 132.121094 313.542969 131.683594 314.488281 131.292969 C 315.433594 130.902344 316.398438 130.558594 317.375 130.261719 C 318.355469 129.964844 319.347656 129.714844 320.351562 129.515625 C 321.355469 129.316406 322.367188 129.164062 323.386719 129.066406 C 324.40625 128.964844 325.425781 128.914062 326.449219 128.914062 C 327.472656 128.914062 328.496094 128.964844 329.515625 129.066406 C 330.53125 129.164062 331.542969 129.316406 332.546875 129.515625 C 333.550781 129.714844 334.542969 129.964844 335.523438 130.261719 C 336.503906 130.558594 337.464844 130.902344 338.414062 131.292969 C 339.359375 131.683594 340.28125 132.121094 341.183594 132.605469 C 342.089844 133.085938 342.964844 133.613281 343.816406 134.183594 C 344.667969 134.75 345.488281 135.359375 346.28125 136.007812 C 347.070312 136.660156 347.828125 137.34375 348.554688 138.070312 C 349.277344 138.792969 349.964844 139.550781 350.613281 140.34375 C 351.261719 141.132812 351.871094 141.953125 352.441406 142.804688 C 353.007812 143.65625 353.535156 144.535156 354.019531 145.4375 C 354.5 146.339844 354.9375 147.265625 355.328125 148.210938 C 355.722656 149.15625 356.066406 150.117188 356.363281 151.097656 C 356.660156 152.078125 356.90625 153.070312 357.109375 154.074219 C 357.308594 155.078125 357.457031 156.089844 357.558594 157.109375 C 357.660156 158.128906 357.707031 159.148438 357.707031 160.171875 Z M 357.707031 160.171875 " fill-opacity="1" fill-rule="nonzero"/><path fill="#590696" d="M 357.707031 160.171875 C 357.707031 161.195312 357.660156 162.21875 357.558594 163.234375 C 357.457031 164.253906 357.308594 165.265625 357.109375 166.269531 C 356.90625 167.273438 356.660156 168.265625 356.363281 169.246094 C 356.066406 170.226562 355.722656 171.1875 355.328125 172.132812 C 354.9375 173.082031 354.5 174.003906 354.019531 174.90625 C 353.535156 175.808594 353.007812 176.6875 352.441406 177.539062 C 351.871094 178.390625 351.261719 179.210938 350.613281 180.003906 C 349.964844 180.792969 349.277344 181.550781 348.554688 182.273438 C 347.828125 183 347.070312 183.6875 346.28125 184.335938 C 345.488281 184.984375 344.667969 185.59375 343.816406 186.164062 C 342.964844 186.730469 342.089844 187.257812 341.183594 187.738281 C 340.28125 188.222656 339.359375 188.660156 338.414062 189.050781 C 337.464844 189.441406 336.503906 189.789062 335.523438 190.085938 C 334.542969 190.382812 333.550781 190.628906 332.546875 190.828125 C 331.542969 191.03125 330.53125 191.179688 329.515625 191.28125 C 328.496094 191.378906 327.472656 191.429688 326.449219 191.429688 C 325.425781 191.429688 324.40625 191.378906 323.386719 191.28125 C 322.367188 191.179688 321.355469 191.03125 320.351562 190.828125 C 319.347656 190.628906 318.355469 190.382812 317.375 190.085938 C 316.398438 189.789062 315.433594 189.441406 314.488281 189.050781 C 313.542969 188.660156 312.617188 188.222656 311.714844 187.738281 C 310.8125 187.257812 309.933594 186.730469 309.085938 186.164062 C 308.234375 185.59375 307.410156 184.984375 306.621094 184.335938 C 305.828125 183.6875 305.070312 183 304.347656 182.273438 C 303.625 181.550781 302.9375 180.792969 302.289062 180.003906 C 301.636719 179.210938 301.027344 178.390625 300.460938 177.539062 C 299.890625 176.6875 299.367188 175.808594 298.882812 174.90625 C 298.402344 174.003906 297.964844 173.082031 297.570312 172.132812 C 297.179688 171.1875 296.835938 170.226562 296.539062 169.246094 C 296.242188 168.265625 295.992188 167.273438 295.792969 166.269531 C 295.59375 165.265625 295.441406 164.253906 295.34375 163.234375 C 295.242188 162.21875 295.191406 161.195312 295.191406 160.171875 C 295.191406 159.148438 295.242188 158.128906 295.34375 157.109375 C 295.441406 156.089844 295.59375 155.078125 295.792969 154.074219 C 295.992188 153.070312 296.242188 152.078125 296.539062 151.097656 C 296.835938 150.117188 297.179688 149.15625 297.570312 148.210938 C 297.964844 147.265625 298.402344 146.339844 298.882812 145.4375 C 299.367188 144.535156 299.890625 143.65625 300.460938 142.804688 C 301.027344 141.953125 301.636719 141.132812 302.289062 140.34375 C 302.9375 139.550781 303.625 138.792969 304.347656 138.070312 C 305.070312 137.34375 305.828125 136.660156 306.621094 136.007812 C 307.410156 135.359375 308.234375 134.75 309.085938 134.183594 C 309.933594 133.613281 310.8125 133.085938 311.714844 132.605469 C 312.617188 132.121094 313.542969 131.683594 314.488281 131.292969 C 315.433594 130.902344 316.398438 130.558594 317.375 130.261719 C 318.355469 129.964844 319.347656 129.714844 320.351562 129.515625 C 321.355469 129.316406 322.367188 129.164062 323.386719 129.066406 C 324.40625 128.964844 325.425781 128.914062 326.449219 128.914062 C 327.472656 128.914062 328.496094 128.964844 329.515625 129.066406 C 330.53125 129.164062 331.542969 129.316406 332.546875 129.515625 C 333.550781 129.714844 334.542969 129.964844 335.523438 130.261719 C 336.503906 130.558594 337.464844 130.902344 338.414062 131.292969 C 339.359375 131.683594 340.28125 132.121094 341.183594 132.605469 C 342.089844 133.085938 342.964844 133.613281 343.816406 134.183594 C 344.667969 134.75 345.488281 135.359375 346.28125 136.007812 C 347.070312 136.660156 347.828125 137.34375 348.554688 138.070312 C 349.277344 138.792969 349.964844 139.550781 350.613281 140.34375 C 351.261719 141.132812 351.871094 141.953125 352.441406 142.804688 C 353.007812 143.65625 353.535156 144.535156 354.019531 145.4375 C 354.5 146.339844 354.9375 147.265625 355.328125 148.210938 C 355.722656 149.15625 356.066406 150.117188 356.363281 151.097656 C 356.660156 152.078125 356.90625 153.070312 357.109375 154.074219 C 357.308594 155.078125 357.457031 156.089844 357.558594 157.109375 C 357.660156 158.128906 357.707031 159.148438 357.707031 160.171875 Z M 357.707031 160.171875 " fill-opacity="1" fill-rule="nonzero"/></g><g clip-path="url(#ae7f0e0909)"><path fill="#0096ff" d="M 343.683594 255.125 L 233.363281 144.800781 C 203.746094 115.160156 124.804688 149.53125 151.820312 176.550781 L 231.15625 255.90625 C 232.265625 257.015625 233.316406 258.171875 234.308594 259.382812 C 235.304688 260.59375 236.234375 261.847656 237.105469 263.152344 C 237.976562 264.453125 238.78125 265.792969 239.519531 267.175781 C 240.261719 268.554688 240.929688 269.96875 241.527344 271.417969 C 242.128906 272.863281 242.65625 274.335938 243.109375 275.835938 C 243.566406 277.332031 243.945312 278.851562 244.253906 280.386719 C 244.558594 281.921875 244.789062 283.46875 244.941406 285.027344 C 245.09375 286.585938 245.171875 288.148438 245.171875 289.714844 C 245.171875 291.28125 245.09375 292.84375 244.941406 294.402344 C 244.789062 295.960938 244.558594 297.507812 244.253906 299.046875 C 243.945312 300.582031 243.566406 302.097656 243.109375 303.597656 C 242.65625 305.09375 242.128906 306.566406 241.527344 308.015625 C 240.929688 309.460938 240.261719 310.875 239.519531 312.257812 C 238.78125 313.636719 237.976562 314.980469 237.105469 316.28125 C 236.234375 317.582031 235.304688 318.839844 234.308594 320.046875 C 233.316406 321.257812 232.265625 322.417969 231.15625 323.523438 L 151.871094 402.832031 C 127.699219 426.980469 204.039062 462.605469 233.363281 433.28125 L 343.683594 322.960938 C 344.800781 321.851562 345.859375 320.691406 346.859375 319.476562 C 347.859375 318.265625 348.796875 317.003906 349.671875 315.699219 C 350.550781 314.394531 351.359375 313.050781 352.101562 311.664062 C 352.847656 310.277344 353.519531 308.859375 354.125 307.410156 C 354.726562 305.957031 355.257812 304.480469 355.71875 302.976562 C 356.175781 301.472656 356.558594 299.949219 356.867188 298.40625 C 357.171875 296.863281 357.40625 295.3125 357.558594 293.746094 C 357.714844 292.183594 357.792969 290.613281 357.792969 289.042969 C 357.792969 287.46875 357.714844 285.902344 357.558594 284.335938 C 357.40625 282.773438 357.171875 281.21875 356.867188 279.675781 C 356.558594 278.136719 356.175781 276.613281 355.71875 275.109375 C 355.257812 273.605469 354.726562 272.125 354.125 270.675781 C 353.519531 269.222656 352.847656 267.804688 352.101562 266.417969 C 351.359375 265.035156 350.550781 263.6875 349.671875 262.382812 C 348.796875 261.078125 347.859375 259.820312 346.859375 258.605469 C 345.859375 257.394531 344.800781 256.230469 343.683594 255.125 Z M 343.683594 255.125 " fill-opacity="1" fill-rule="nonzero"/></g><g clip-path="url(#e78a52e7dd)"><path fill="#5800ff" d="M 343.683594 255.125 L 233.363281 144.800781 C 203.746094 115.160156 124.804688 149.53125 151.820312 176.550781 L 231.15625 255.90625 C 233.058594 257.808594 234.785156 259.851562 236.339844 262.042969 C 237.894531 264.234375 239.257812 266.539062 240.421875 268.960938 C 241.585938 271.382812 242.539062 273.882812 243.28125 276.46875 C 244.019531 279.050781 244.539062 281.675781 244.835938 284.347656 C 272.171875 316.4375 294.898438 347.597656 299.628906 367.015625 L 343.757812 322.886719 C 344.871094 321.777344 345.921875 320.617188 346.921875 319.402344 C 347.917969 318.1875 348.851562 316.929688 349.722656 315.625 C 350.597656 314.320312 351.402344 312.972656 352.144531 311.589844 C 352.882812 310.207031 353.554688 308.789062 354.152344 307.335938 C 354.753906 305.886719 355.28125 304.410156 355.738281 302.90625 C 356.191406 301.40625 356.574219 299.882812 356.878906 298.34375 C 357.183594 296.804688 357.414062 295.25 357.566406 293.6875 C 357.71875 292.125 357.792969 290.558594 357.792969 288.988281 C 357.789062 287.417969 357.710938 285.855469 357.554688 284.292969 C 357.398438 282.730469 357.167969 281.179688 356.859375 279.636719 C 356.550781 278.097656 356.164062 276.578125 355.707031 275.078125 C 355.25 273.574219 354.71875 272.101562 354.113281 270.648438 C 353.511719 269.199219 352.835938 267.785156 352.09375 266.402344 C 351.351562 265.019531 350.542969 263.675781 349.667969 262.371094 C 348.789062 261.070312 347.851562 259.8125 346.855469 258.601562 C 345.855469 257.390625 344.796875 256.230469 343.683594 255.125 Z M 343.683594 255.125 " fill-opacity="1" fill-rule="nonzero"/></g><g fill="#231f20" fill-opacity="1"><g transform="translate(423.946326, 368.431963)"><g><path d="M 45.140625 0 L 17.796875 0 L 17.796875 -149.359375 L 45.140625 -149.359375 Z M 45.140625 0 "/></g></g></g><g fill="#231f20" fill-opacity="1"><g transform="translate(486.756219, 368.431963)"><g><path d="M 42.171875 0 L 15.59375 0 L 15.59375 -112.890625 L 40.859375 -112.890625 L 40.859375 -95.328125 C 43.046875 -99.421875 46.039062 -103.039062 49.84375 -106.1875 C 53.65625 -109.34375 58.085938 -111.816406 63.140625 -113.609375 C 68.191406 -115.398438 73.609375 -116.296875 79.390625 -116.296875 C 94.546875 -116.296875 105.894531 -111.484375 113.4375 -101.859375 C 120.976562 -92.234375 124.75 -78.5625 124.75 -60.84375 L 124.75 0 L 98.171875 0 L 98.171875 -60.296875 C 98.171875 -71.492188 95.828125 -79.546875 91.140625 -84.453125 C 86.460938 -89.359375 80.097656 -91.8125 72.046875 -91.8125 C 66.847656 -91.8125 61.976562 -90.492188 57.4375 -87.859375 C 52.894531 -85.222656 49.210938 -81.378906 46.390625 -76.328125 C 43.578125 -71.273438 42.171875 -65.050781 42.171875 -57.65625 Z M 42.171875 0 "/></g></g></g><g fill="#231f20" fill-opacity="1"><g transform="translate(626.211752, 368.431963)"><g><path d="M 85 0 L 62.046875 0 C 58.679688 0 55.222656 -0.304688 51.671875 -0.921875 C 48.117188 -1.546875 44.726562 -2.703125 41.5 -4.390625 C 38.28125 -6.078125 35.410156 -8.507812 32.890625 -11.6875 C 30.367188 -14.875 28.351562 -19.007812 26.84375 -24.09375 C 25.34375 -29.1875 24.59375 -35.46875 24.59375 -42.9375 L 24.59375 -90.046875 L 1.203125 -90.046875 L 1.203125 -112.890625 L 24.59375 -112.890625 L 24.59375 -145.953125 L 51.171875 -146.171875 L 51.171875 -112.890625 L 85 -112.890625 L 85 -90.046875 L 51.171875 -90.046875 L 51.171875 -41.734375 C 51.171875 -36.460938 51.9375 -32.398438 53.46875 -29.546875 C 55.007812 -26.691406 57.039062 -24.734375 59.5625 -23.671875 C 62.09375 -22.609375 64.75 -22.078125 67.53125 -22.078125 L 85 -22.078125 Z M 85 0 "/></g></g></g><g fill="#231f20" fill-opacity="1"><g transform="translate(717.132366, 368.431963)"><g><path d="M 123 -58.421875 C 123 -57.035156 122.960938 -55.71875 122.890625 -54.46875 C 122.816406 -53.226562 122.671875 -51.546875 122.453125 -49.421875 L 34.265625 -49.421875 C 35.210938 -43.265625 37.164062 -38.023438 40.125 -33.703125 C 43.09375 -29.390625 46.773438 -26.078125 51.171875 -23.765625 C 55.566406 -21.460938 60.363281 -20.3125 65.5625 -20.3125 C 72.300781 -20.3125 77.753906 -21.644531 81.921875 -24.3125 C 86.097656 -26.988281 89.132812 -30.707031 91.03125 -35.46875 L 120.03125 -35.46875 C 118.632812 -30.414062 116.34375 -25.546875 113.15625 -20.859375 C 109.976562 -16.179688 106.082031 -12.03125 101.46875 -8.40625 C 96.851562 -4.78125 91.5625 -1.90625 85.59375 0.21875 C 79.632812 2.34375 73.140625 3.40625 66.109375 3.40625 C 57.617188 3.40625 49.800781 1.847656 42.65625 -1.265625 C 35.519531 -4.378906 29.332031 -8.679688 24.09375 -14.171875 C 18.863281 -19.660156 14.800781 -26.023438 11.90625 -33.265625 C 9.019531 -40.515625 7.578125 -48.242188 7.578125 -56.453125 C 7.578125 -64.722656 9.019531 -72.460938 11.90625 -79.671875 C 14.800781 -86.878906 18.863281 -93.226562 24.09375 -98.71875 C 29.332031 -104.21875 35.519531 -108.519531 42.65625 -111.625 C 49.800781 -114.738281 57.617188 -116.296875 66.109375 -116.296875 C 74.597656 -116.296875 82.335938 -114.757812 89.328125 -111.6875 C 96.328125 -108.613281 102.332031 -104.382812 107.34375 -99 C 112.363281 -93.613281 116.226562 -87.441406 118.9375 -80.484375 C 121.644531 -73.535156 123 -66.179688 123 -58.421875 Z M 35.359375 -69.953125 L 95.875 -69.953125 C 95.507812 -74.203125 93.929688 -78.0625 91.140625 -81.53125 C 88.359375 -85.007812 84.769531 -87.8125 80.375 -89.9375 C 75.988281 -92.0625 71.195312 -93.125 66 -93.125 C 61.53125 -93.125 57.242188 -92.300781 53.140625 -90.65625 C 49.046875 -89.007812 45.441406 -86.484375 42.328125 -83.078125 C 39.222656 -79.671875 36.898438 -75.296875 35.359375 -69.953125 Z M 35.359375 -69.953125 "/></g></g></g><g fill="#231f20" fill-opacity="1"><g transform="translate(846.156183, 368.431963)"><g><path d="M 42.171875 0 L 15.59375 0 L 15.59375 -154.734375 L 42.171875 -154.734375 Z M 42.171875 0 "/></g></g></g><g fill="#231f20" fill-opacity="1"><g transform="translate(903.805123, 368.431963)"><g><path d="M 42.171875 0 L 15.59375 0 L 15.59375 -154.734375 L 42.171875 -154.734375 Z M 42.171875 0 "/></g></g></g><g fill="#231f20" fill-opacity="1"><g transform="translate(961.454063, 368.431963)"><g><path d="M 28.65625 -130.46875 C 23.53125 -130.46875 19.519531 -131.945312 16.625 -134.90625 C 13.738281 -137.875 12.296875 -141.484375 12.296875 -145.734375 C 12.296875 -149.828125 13.738281 -153.375 16.625 -156.375 C 19.519531 -159.375 23.566406 -160.875 28.765625 -160.875 C 34.109375 -160.875 38.226562 -159.375 41.125 -156.375 C 44.019531 -153.375 45.46875 -149.828125 45.46875 -145.734375 C 45.46875 -141.484375 44.019531 -137.875 41.125 -134.90625 C 38.226562 -131.945312 34.070312 -130.46875 28.65625 -130.46875 Z M 42.171875 0 L 15.59375 0 L 15.59375 -112.890625 L 42.171875 -112.890625 Z M 42.171875 0 "/></g></g></g></svg>